<?xml version="1.0" encoding="UTF-8"?>
<svg version="1.1" xmlns="http://www.w3.org/2000/svg" width="1536" height="1536">
<path d="M0 0 C3.1162087 0.54469256 6.23874889 0.95174692 9.37866211 1.33447266 C30.84576304 4.15561118 51.7195987 7.90743276 72.20288086 14.97509766 C75.59821618 16.13652433 79.00772842 17.15282275 82.46728516 18.10253906 C91.4322197 20.5752421 100.11787151 23.75268716 108.81616211 27.02197266 C109.45566803 27.25967377 110.09517395 27.49737488 110.75405884 27.74227905 C112.60482097 28.43235594 114.45080626 29.13520174 116.29663086 29.83837891 C117.37195068 30.24644775 118.44727051 30.6545166 119.55517578 31.07495117 C122.85213635 32.56014168 125.65319921 34.41534845 128.62866211 36.45947266 C130.80831066 37.26086499 130.80831066 37.26086499 133.00366211 37.70947266 C151.56725954 42.88612801 168.60289687 55.62877085 184.52661133 66.08203125 C186.59912187 67.44011539 188.67797054 68.7880556 190.75756836 70.13525391 C196.74586247 74.0399297 202.4941529 77.95941575 207.75756836 82.82666016 C209.86156584 84.66271641 212.06903665 86.20303277 214.37866211 87.77197266 C219.37414252 91.19154347 223.9722172 94.98178461 228.58569336 98.89697266 C230.62837995 100.61712979 232.67279499 102.30368552 234.76538086 103.95947266 C235.75151367 104.74322266 236.73764648 105.52697266 237.75366211 106.33447266 C238.64311523 107.03314453 239.53256836 107.73181641 240.44897461 108.45166016 C242.57325233 110.40843211 243.43347602 111.889542 244.62866211 114.45947266 C245.35053711 114.70697266 246.07241211 114.95447266 246.81616211 115.20947266 C250.42655053 116.81408973 252.04586512 119.0454527 254.54272461 122.04931641 C256.94299684 124.82266466 259.51411558 127.39155895 262.12866211 129.95947266 C271.64677731 139.39881725 271.64677731 139.39881725 274.62866211 143.45947266 C274.62866211 144.11947266 274.62866211 144.77947266 274.62866211 145.45947266 C275.28866211 145.45947266 275.94866211 145.45947266 276.62866211 145.45947266 C278.06678884 147.02888067 279.42896261 148.668213 280.75366211 150.33447266 C281.54901367 151.33091797 282.34436523 152.32736328 283.16381836 153.35400391 C283.9772168 154.37880859 284.79061523 155.40361328 285.62866211 156.45947266 C286.41112305 157.41208984 287.19358398 158.36470703 287.99975586 159.34619141 C289.08450195 160.67070313 289.08450195 160.67070313 290.19116211 162.02197266 C290.85245117 162.82763672 291.51374023 163.63330078 292.19506836 164.46337891 C293.62866211 166.45947266 293.62866211 166.45947266 293.62866211 168.45947266 C294.28866211 168.45947266 294.94866211 168.45947266 295.62866211 168.45947266 C297.13097775 170.43051077 298.51482085 172.39563916 299.87866211 174.45947266 C300.69256178 175.66471401 301.50766416 176.86914407 302.32397461 178.07275391 C302.72003906 178.65879395 303.11610352 179.24483398 303.52416992 179.84863281 C304.87918304 181.82484337 306.3004211 183.74204863 307.75366211 185.64697266 C308.22674805 186.27474609 308.69983398 186.90251953 309.18725586 187.54931641 C310.17456392 188.85770026 311.16701813 190.16221219 312.16381836 191.46337891 C317.01269494 198.0546414 320.85927026 205.13124361 324.72119141 212.32763672 C327.59669618 217.67540233 327.59669618 217.67540233 330.85131836 222.79541016 C332.43251762 225.16547147 333.43583075 227.16953095 334.37866211 229.83447266 C336.14159297 234.45696065 338.25823506 238.80931641 340.50366211 243.20947266 C356.0864474 273.9548575 366.32071884 307.57913354 372.82006836 341.35253906 C373.81913108 346.52727292 374.88733487 351.63734292 376.24829102 356.72851562 C389.43418945 406.78396968 383.91623761 465.68554796 373.19116211 515.58447266 C373.00424805 516.45694641 372.81733398 517.32942017 372.62475586 518.22833252 C366.26585127 547.61255828 358.34671685 581.54649513 342.01928711 607.02587891 C340.42267667 609.81994717 339.35315784 612.62335939 338.25366211 615.64697266 C336.34819461 620.84988877 334.10121287 625.70237896 331.50366211 630.58447266 C331.1667334 631.22408936 330.82980469 631.86370605 330.48266602 632.52270508 C328.80433627 635.6173591 327.1044994 637.99716453 324.62866211 640.45947266 C323.66211101 642.30925149 322.75078365 644.18834323 321.87866211 646.08447266 C319.53426597 650.89998904 316.95059852 654.84693973 313.56225586 658.96728516 C311.1346715 662.09617166 309.00597651 665.37181213 306.87866211 668.70947266 C306.50185303 669.30034668 306.12504395 669.8912207 305.73681641 670.5 C304.13297518 673.03245634 302.56812369 675.56738897 301.10131836 678.18212891 C299.55532018 680.57289001 298.06310372 681.92298787 295.81616211 683.64697266 C291.83812384 686.98503402 289.58100348 690.53544023 287.06225586 695.03369141 C283.78024731 700.58717181 279.16058124 704.92755353 274.62866211 709.45947266 C272.37548933 711.98038991 270.13665819 714.51283629 267.90991211 717.05712891 C265.63179637 719.45617203 263.21547521 721.40499408 260.62866211 723.45947266 C259.46878124 724.69855244 258.34151657 725.9692006 257.25366211 727.27197266 C252.17153583 733.19929056 246.6916497 738.44483322 240.77319336 743.52587891 C238.40682316 745.65949138 236.21634045 747.9171234 234.00366211 750.20947266 C228.00911796 756.25884496 221.40268015 761.32863146 214.62866211 766.45947266 C213.27302859 767.49832018 211.91756322 768.53738715 210.56225586 769.57666016 C203.1290942 775.24526 195.6286814 780.60656839 187.62866211 785.45947266 C186.35657876 786.24912918 185.08567624 787.04069224 183.81616211 787.83447266 C183.18709961 788.22505859 182.55803711 788.61564453 181.90991211 789.01806641 C180.06689884 790.18257308 178.23637177 791.36682692 176.40991211 792.55712891 C175.81927979 792.94143066 175.22864746 793.32573242 174.62011719 793.72167969 C172.90617602 794.83832778 171.19507258 795.95932793 169.48413086 797.08056641 C161.04178207 802.41071753 152.08759893 806.77480865 143.06616211 811.02197266 C141.12693839 811.93905036 139.18813267 812.85701249 137.24975586 813.77587891 C135.83194824 814.44731934 135.83194824 814.44731934 134.38549805 815.13232422 C131.79472441 816.3795298 129.23236695 817.67150291 126.67163086 818.97900391 C121.06559718 821.79843544 115.30467277 824.19839657 109.50366211 826.58447266 C108.47112305 827.01373047 107.43858398 827.44298828 106.37475586 827.88525391 C91.89411637 833.88042312 77.23062841 838.3776957 62.07006836 842.29931641 C58.67823105 843.17794623 55.30815225 844.1144951 51.94116211 845.08447266 C46.33561883 846.63383089 40.63798776 847.62124442 34.91381836 848.61572266 C31.54116672 849.23537208 28.247808 850.05733041 24.92944336 850.92041016 C6.8856502 855.50035483 -11.80233917 857.21464037 -30.37133789 857.45947266 C-31.85978673 857.48523712 -33.34823041 857.5113 -34.83666992 857.53759766 C-65.71003399 858.04744791 -96.76075819 857.68755777 -127.03198242 850.95361328 C-129.41783914 850.44965023 -131.80555076 850.02964047 -134.21118164 849.63134766 C-159.22233175 845.42853395 -183.61407186 837.17133191 -207.37133789 828.45947266 C-208.13349609 828.18006836 -208.8956543 827.90066406 -209.6809082 827.61279297 C-218.94663738 824.16924124 -227.74106182 819.92583494 -236.51831055 815.40576172 C-239.24391422 814.01387241 -241.99719233 812.67912516 -244.74633789 811.33447266 C-248.22944086 809.59756531 -251.5697877 807.76862765 -254.87133789 805.70947266 C-259.86776272 802.61915146 -265.09858113 800.09699515 -270.37133789 797.52197266 C-276.71069588 794.41462614 -282.62609568 791.23510343 -288.28149414 786.97119141 C-290.44149731 785.40872182 -292.63396258 784.19045743 -294.99633789 782.95947266 C-298.87781066 780.87309637 -301.90595984 778.38043661 -305.14477539 775.41259766 C-308.73435283 772.26384552 -312.59545417 769.48803731 -316.42993164 766.64697266 C-319.65893105 764.24559195 -322.82948539 761.7787563 -325.99243164 759.29150391 C-327.84068517 757.86813625 -329.71280206 756.47573226 -331.59399414 755.09619141 C-332.14700195 754.69013672 -332.70000977 754.28408203 -333.26977539 753.86572266 C-334.8639332 752.69817045 -336.46322694 751.53764053 -338.06274414 750.37744141 C-338.82458008 749.74451172 -339.58641602 749.11158203 -340.37133789 748.45947266 C-340.37133789 747.79947266 -340.37133789 747.13947266 -340.37133789 746.45947266 C-340.96433182 746.1911412 -341.55732574 745.92280975 -342.16828918 745.64634705 C-344.38778413 744.45061238 -345.84206064 743.24222536 -347.62011719 741.46948242 C-348.2314299 740.86447403 -348.84274261 740.25946564 -349.47257996 739.63612366 C-350.12366226 738.98099289 -350.77474457 738.32586212 -351.44555664 737.65087891 C-352.47045952 736.62884621 -352.47045952 736.62884621 -353.5160675 735.58616638 C-354.96336845 734.14022612 -356.40814799 732.69175832 -357.85058594 731.2409668 C-360.02659974 729.05436763 -362.21290722 726.87848493 -364.40063477 724.70361328 C-371.1529383 717.95749295 -377.7093091 711.22458721 -383.60375977 703.70458984 C-385.87030854 700.82569722 -388.30069641 698.11733799 -390.76586914 695.40869141 C-392.8432364 692.88653505 -394.56678696 690.18405402 -396.37133789 687.45947266 C-398.39065597 684.63070664 -400.44703371 681.82906103 -402.49633789 679.02197266 C-411.00166805 667.29307933 -418.99076982 655.35365198 -426.35180664 642.87353516 C-428.01238882 640.06628404 -429.71456347 637.29320204 -431.43383789 634.52197266 C-438.81283203 622.17634785 -444.56828144 608.87806443 -450.36352539 595.73974609 C-451.24327614 593.74922478 -452.13347369 591.76387767 -453.02758789 589.77978516 C-458.90184755 576.5002088 -463.67307167 562.71671564 -467.44946289 548.69775391 C-468.15258509 546.22788821 -468.92449143 543.8486062 -469.76977539 541.42822266 C-475.70756784 523.75701259 -478.71286298 504.88261424 -481.24633789 486.45947266 C-481.34952332 485.71660004 -481.45270874 484.97372742 -481.559021 484.20834351 C-483.94863874 466.79416717 -484.53410274 449.60981187 -484.50170898 432.04492188 C-484.49635955 428.59842508 -484.50167697 425.1520592 -484.50805664 421.70556641 C-484.51695507 402.51425189 -483.44749232 384.01243277 -480.68383789 365.02197266 C-480.55161835 364.1039386 -480.4193988 363.18590454 -480.28317261 362.24005127 C-478.08534459 347.09171676 -475.34309059 332.25600225 -471.37133789 317.45947266 C-471.11803711 316.48558594 -470.86473633 315.51169922 -470.60375977 314.50830078 C-462.42299099 283.32296418 -449.287421 253.0041935 -434.37133789 224.45947266 C-434.04037109 223.8183252 -433.7094043 223.17717773 -433.3684082 222.51660156 C-429.0888174 214.23385286 -424.52822313 206.23499895 -419.37133789 198.45947266 C-418.80286133 197.57646484 -418.23438477 196.69345703 -417.64868164 195.78369141 C-406.45851624 178.60643114 -393.96944623 161.81463994 -380.37133789 146.45947266 C-379.20429227 145.126471 -378.03764551 143.79312007 -376.87133789 142.45947266 C-376.2899707 141.79947266 -375.70860352 141.13947266 -375.10961914 140.45947266 C-373.94484692 139.11933023 -372.79641065 137.76482373 -371.66430664 136.39697266 C-371.13450195 135.75759766 -370.60469727 135.11822266 -370.05883789 134.45947266 C-369.58833008 133.88197266 -369.11782227 133.30447266 -368.63305664 132.70947266 C-367.37133789 131.45947266 -367.37133789 131.45947266 -365.37133789 131.45947266 C-364.71133789 130.13947266 -364.05133789 128.81947266 -363.37133789 127.45947266 C-362.71133789 127.45947266 -362.05133789 127.45947266 -361.37133789 127.45947266 C-361.04133789 126.46947266 -360.71133789 125.47947266 -360.37133789 124.45947266 C-358.87524414 122.98681641 -358.87524414 122.98681641 -356.93383789 121.39697266 C-353.57975774 118.55890483 -350.45444214 115.59022921 -347.37133789 112.45947266 C-341.24482609 106.27684014 -334.82465709 100.75598509 -327.91430664 95.47509766 C-325.43749616 93.51191147 -323.05153556 91.47308137 -320.66455078 89.40307617 C-315.35784889 84.81087241 -310.04723486 80.7762583 -304.03149414 77.12353516 C-301.30608973 75.41865663 -298.75742545 73.57236902 -296.18383789 71.64697266 C-279.77110462 59.60326275 -261.63175798 50.0562317 -243.49633789 40.89697266 C-242.88532227 40.58679199 -242.27430664 40.27661133 -241.64477539 39.95703125 C-238.66454975 38.47763274 -235.67897052 37.17827582 -232.55102539 36.05712891 C-229.46789512 34.9396189 -226.61318663 33.60012579 -223.70336914 32.08837891 C-217.67443302 29.01229707 -211.41184932 26.71008374 -205.05883789 24.39697266 C-203.35824219 23.7656543 -203.35824219 23.7656543 -201.62329102 23.12158203 C-192.20677546 19.66081136 -182.70152624 16.57029962 -172.99633789 14.02197266 C-170.04281992 13.24473108 -167.202635 12.39715898 -164.33618164 11.33837891 C-140.64699983 2.60792269 -114.34692636 0.96759445 -89.37133789 -1.54052734 C-88.19877441 -1.66057129 -87.02621094 -1.78061523 -85.81811523 -1.90429688 C-57.45453943 -4.7385425 -28.14321323 -4.96251197 0 0 Z M-66.15649414 215.47509766 C-79.60268922 215.73504749 -92.41092369 219.10900928 -105.37133789 222.45947266 C-106.26256348 222.68231934 -107.15378906 222.90516602 -108.07202148 223.13476562 C-130.66393942 228.86111262 -151.24478742 239.59096469 -170.62915039 252.34301758 C-172.37133789 253.45947266 -172.37133789 253.45947266 -174.37133789 254.45947266 C-174.37133789 255.11947266 -174.37133789 255.77947266 -174.37133789 256.45947266 C-174.94625977 256.72630859 -175.52118164 256.99314453 -176.11352539 257.26806641 C-199.82516016 269.78026123 -221.56344924 297.6146328 -234.37133789 320.45947266 C-234.7077832 321.05469727 -235.04422852 321.64992188 -235.39086914 322.26318359 C-247.50781579 343.85318481 -254.76606728 366.57496086 -259.18383789 390.89697266 C-259.39089355 392.03312012 -259.59794922 393.16926758 -259.8112793 394.33984375 C-263.63342786 416.53535347 -263.15176825 438.33750064 -259.37133789 460.45947266 C-259.11392822 461.97879395 -259.11392822 461.97879395 -258.85131836 463.52880859 C-255.44231281 483.12982889 -250.00651606 501.0836807 -241.80883789 519.20947266 C-241.13860596 520.69169312 -241.13860596 520.69169312 -240.45483398 522.20385742 C-237.5805513 528.36116069 -234.25532264 533.89488621 -230.37133789 539.45947266 C-229.5238334 540.74913262 -228.68114962 542.0419772 -227.84399414 543.33837891 C-223.91683836 549.35900527 -220.0522012 555.21427173 -215.14868164 560.49853516 C-212.93773149 562.93786917 -210.91979618 565.50749141 -208.87133789 568.08447266 C-205.79307923 571.87470951 -202.71098648 575.15512036 -198.91040039 578.20947266 C-196.56154625 580.11717145 -194.5100405 582.32077005 -192.37133789 584.45947266 C-185.67203037 591.68744527 -185.67203037 591.68744527 -177.37133789 595.45947266 C-177.37133789 596.11947266 -177.37133789 596.77947266 -177.37133789 597.45947266 C-175.27362162 598.94359181 -173.18407048 600.30739596 -170.99633789 601.64697266 C-166.76570008 604.28260774 -162.65868759 606.9447998 -158.68383789 609.95947266 C-147.01510694 618.23122107 -132.69579963 623.45672821 -119.37133789 628.45947266 C-118.56825195 628.76498047 -117.76516602 629.07048828 -116.93774414 629.38525391 C-110.25529094 631.7762234 -103.3289625 633.13227833 -96.37133789 634.45947266 C-95.51588379 634.62624512 -94.66042969 634.79301758 -93.77905273 634.96484375 C-54.17285706 642.56310502 -14.06979024 640.28988119 23.62866211 625.45947266 C24.56436035 625.09772949 25.50005859 624.73598633 26.46411133 624.36328125 C29.40037341 623.22337801 32.32847183 622.06497539 35.25366211 620.89697266 C36.14206787 620.54538086 37.03047363 620.19378906 37.94580078 619.83154297 C44.22380672 617.26061189 49.91188159 614.10269487 55.62866211 610.45947266 C56.30380859 610.02965088 56.97895508 609.5998291 57.67456055 609.15698242 C59.52474786 607.96141445 61.36095853 606.74788475 63.19116211 605.52197266 C63.82739502 605.0959375 64.46362793 604.66990234 65.11914062 604.23095703 C72.68461269 599.24014176 72.68461269 599.24014176 79.62866211 593.45947266 C79.62866211 592.79947266 79.62866211 592.13947266 79.62866211 591.45947266 C80.30928711 591.27384766 80.98991211 591.08822266 81.69116211 590.89697266 C85.84028693 588.86654987 88.48533318 585.78261065 91.62866211 582.45947266 C94.49920457 579.55876688 97.40786353 576.70049563 100.33569336 573.85791016 C111.55907003 563.05727226 111.55907003 563.05727226 120.62866211 550.45947266 C120.62866211 549.79947266 120.62866211 549.13947266 120.62866211 548.45947266 C121.28866211 548.45947266 121.94866211 548.45947266 122.62866211 548.45947266 C124.10570547 546.29906691 125.44375958 544.15689312 126.75366211 541.89697266 C127.15544678 541.20861328 127.55723145 540.52025391 127.97119141 539.81103516 C128.80222408 538.37845726 129.62892462 536.94335812 130.45141602 535.50585938 C131.4731511 533.72979479 132.52306405 531.96999767 133.57788086 530.21337891 C144.60917765 510.94908075 152.84167148 488.29008238 156.62866211 466.45947266 C156.75418457 465.77933105 156.87970703 465.09918945 157.0090332 464.3984375 C164.01239438 424.59551313 157.09677696 382.96014107 143.62866211 345.45947266 C143.21632324 344.29569092 143.21632324 344.29569092 142.7956543 343.10839844 C140.14017981 335.69702651 137.11738405 329.17035031 132.35131836 322.85400391 C130.51040738 320.29509591 129.04120453 317.68145221 127.56616211 314.89697266 C124.91975072 309.91632709 122.21654786 304.836261 118.62866211 300.45947266 C117.96866211 300.45947266 117.30866211 300.45947266 116.62866211 300.45947266 C116.37157471 299.89526611 116.1144873 299.33105957 115.84960938 298.74975586 C111.36158209 290.33100282 103.90441557 283.42020672 97.19116211 276.77197266 C96.39645508 275.96953125 95.60174805 275.16708984 94.78295898 274.34033203 C89.68835476 269.2623091 84.37690933 264.77287234 78.62866211 260.45947266 C77.16746698 259.29639226 75.70880543 258.1301157 74.25366211 256.95947266 C69.26400964 253.09012213 64.02486032 249.73118338 58.62866211 246.45947266 C57.62577148 245.84330078 56.62288086 245.22712891 55.58959961 244.59228516 C32.20848207 230.69753989 6.53740107 221.51421414 -20.37133789 217.45947266 C-21.75579102 217.19650391 -21.75579102 217.19650391 -23.16821289 216.92822266 C-27.54015502 216.28842625 -31.89727664 216.09040632 -36.30883789 215.89697266 C-37.24179687 215.85523926 -38.17475586 215.81350586 -39.13598633 215.77050781 C-48.15865688 215.39055692 -57.12812604 215.43782885 -66.15649414 215.47509766 Z " fill="#5E66EC" transform="translate(1011.371337890625,365.54052734375)"/>
<path d="M0 0 C68.97 0 137.94 0 209 0 C209 214.83 209 429.66 209 651 C205.25135842 652.24954719 201.76758823 652.13803281 197.8633728 652.12698364 C197.02438686 652.12854363 196.18540092 652.13010362 195.32099116 652.13171089 C192.49962096 652.13571098 189.67830423 652.13253507 186.85693359 652.12939453 C184.83843453 652.13074899 182.81993572 652.13252917 180.80143738 652.13470459 C175.31204739 652.13927303 169.82267614 652.13749192 164.33328581 652.1343255 C158.59886848 652.13179957 152.86445279 652.13414003 147.1300354 652.13571167 C137.50107535 652.13753238 127.87212295 652.13512931 118.24316406 652.13037109 C107.09424837 652.12492558 95.94535096 652.12669363 84.79643571 652.1321975 C75.23889998 652.13672773 65.68136976 652.13737971 56.1238333 652.13475883 C50.40895197 652.13319596 44.69407924 652.13300263 38.97919846 652.13629532 C33.60963136 652.13917284 28.24008797 652.13720056 22.87052345 652.13140106 C20.8939461 652.13007295 18.91736676 652.13046843 16.94079018 652.13266373 C14.25471935 652.13537317 11.56872574 652.13199669 8.88265991 652.12698364 C8.08997471 652.12921436 7.29728951 652.13144509 6.48058355 652.13374341 C1.11415005 652.11415005 1.11415005 652.11415005 0 651 C-0.09704458 649.56988101 -0.12447378 648.13497825 -0.1241985 646.70157045 C-0.12644579 645.76616856 -0.12869308 644.83076667 -0.13100848 643.86701927 C-0.12838146 642.8252174 -0.12575445 641.78341553 -0.12304783 640.71004391 C-0.1247786 639.05961624 -0.1247786 639.05961624 -0.12654433 637.37584659 C-0.12921966 633.63897236 -0.12468134 629.90214005 -0.12025452 626.16526794 C-0.12069003 623.47915873 -0.12152219 620.79305232 -0.12284368 618.10694367 C-0.12492328 612.24109246 -0.1232637 606.37525136 -0.11920547 600.50940132 C-0.11318767 591.78700207 -0.11286806 583.06460924 -0.11374746 574.3422083 C-0.11506357 559.67204499 -0.11171161 545.00188617 -0.10573006 530.33172417 C-0.09981983 515.79936132 -0.09596549 501.26700035 -0.09487724 486.73463631 C-0.0948085 485.83219329 -0.09473976 484.92975028 -0.09466894 483.99996051 C-0.09433062 479.41720023 -0.09402923 474.83443995 -0.09374207 470.25167967 C-0.09163977 437.76356967 -0.08489718 405.27546213 -0.07543945 372.78735352 C-0.06626007 341.21899427 -0.05917398 309.6506357 -0.05493164 278.08227539 C-0.05480011 277.10977652 -0.05466859 276.13727765 -0.05453308 275.13530911 C-0.05321459 265.36937538 -0.05193877 255.60344165 -0.05069422 245.83750792 C-0.04815777 225.94188859 -0.04533652 206.04626929 -0.04234314 186.15065002 C-0.04220585 185.23581403 -0.04206856 184.32097803 -0.04192711 183.37841972 C-0.0377027 155.32881252 -0.03227074 127.27920574 -0.02565002 99.229599 C-0.02546247 98.43299578 -0.02527491 97.63639256 -0.02508167 96.81564984 C-0.01746506 64.54376637 -0.00857204 32.27188323 0 0 Z " fill="#FDFDFC" transform="translate(175,562)"/>
<path d="M0 0 C1.01578125 0.81210937 2.0315625 1.62421875 3.078125 2.4609375 C7.68700245 6.46597806 11.23001602 11.22105105 15 16 C15.53753906 16.62519531 16.07507813 17.25039063 16.62890625 17.89453125 C26.17537316 29.41792319 30.69744345 44.67183759 34 59 C34.18546387 59.74781738 34.37092773 60.49563477 34.56201172 61.26611328 C41.07340003 89.74545038 34.03060592 116.25403681 20 141 C16.49353126 146.46218393 12.70106859 151.65480318 8.375 156.5 C7.66085937 157.3146875 6.94671875 158.129375 6.2109375 158.96875 C3.89039711 161.10069523 1.97752119 162.03883526 -1 163 C-1 163.66 -1 164.32 -1 165 C-2.3984375 166.20166016 -2.3984375 166.20166016 -4.375 167.5390625 C-5.46941406 168.280354 -5.46941406 168.280354 -6.5859375 169.03662109 C-7.38257813 169.56078613 -8.17921875 170.08495117 -9 170.625 C-9.81726563 171.16334473 -10.63453125 171.70168945 -11.4765625 172.25634766 C-41.04354238 191.40508637 -75.46390144 198.91947308 -110.3515625 192.09765625 C-140.6858042 185.34883537 -169.30148925 167.65450578 -186.5625 141.5 C-202.309133 116.67746821 -207.89865801 88.01749027 -201.51220703 59.16113281 C-197.78033166 43.41539365 -191.9918591 27.15625096 -181 15 C-180.2884375 14.18273437 -179.576875 13.36546875 -178.84375 12.5234375 C-176.59933851 9.97925872 -174.30831349 7.48618704 -172 5 C-171.39800781 4.32066406 -170.79601562 3.64132812 -170.17578125 2.94140625 C-126.51668091 -44.12708154 -46.17062992 -38.3680514 0 0 Z " fill="#FDFDFB" transform="translate(363,292)"/>
<path d="M0 0 C3.1162087 0.54469256 6.23874889 0.95174692 9.37866211 1.33447266 C30.84576304 4.15561118 51.7195987 7.90743276 72.20288086 14.97509766 C75.59821618 16.13652433 79.00772842 17.15282275 82.46728516 18.10253906 C91.4322197 20.5752421 100.11787151 23.75268716 108.81616211 27.02197266 C109.45566803 27.25967377 110.09517395 27.49737488 110.75405884 27.74227905 C112.60482097 28.43235594 114.45080626 29.13520174 116.29663086 29.83837891 C117.37195068 30.24644775 118.44727051 30.6545166 119.55517578 31.07495117 C122.85213635 32.56014168 125.65319921 34.41534845 128.62866211 36.45947266 C130.80831066 37.26086499 130.80831066 37.26086499 133.00366211 37.70947266 C151.56725954 42.88612801 168.60289687 55.62877085 184.52661133 66.08203125 C186.59912187 67.44011539 188.67797054 68.7880556 190.75756836 70.13525391 C196.74586247 74.0399297 202.4941529 77.95941575 207.75756836 82.82666016 C209.86156584 84.66271641 212.06903665 86.20303277 214.37866211 87.77197266 C219.37414252 91.19154347 223.9722172 94.98178461 228.58569336 98.89697266 C230.62837995 100.61712979 232.67279499 102.30368552 234.76538086 103.95947266 C235.75151367 104.74322266 236.73764648 105.52697266 237.75366211 106.33447266 C238.64311523 107.03314453 239.53256836 107.73181641 240.44897461 108.45166016 C242.57325233 110.40843211 243.43347602 111.889542 244.62866211 114.45947266 C245.35053711 114.70697266 246.07241211 114.95447266 246.81616211 115.20947266 C250.42655053 116.81408973 252.04586512 119.0454527 254.54272461 122.04931641 C256.94299684 124.82266466 259.51411558 127.39155895 262.12866211 129.95947266 C271.64677731 139.39881725 271.64677731 139.39881725 274.62866211 143.45947266 C274.62866211 144.11947266 274.62866211 144.77947266 274.62866211 145.45947266 C275.28866211 145.45947266 275.94866211 145.45947266 276.62866211 145.45947266 C278.06678884 147.02888067 279.42896261 148.668213 280.75366211 150.33447266 C281.54901367 151.33091797 282.34436523 152.32736328 283.16381836 153.35400391 C283.9772168 154.37880859 284.79061523 155.40361328 285.62866211 156.45947266 C286.41112305 157.41208984 287.19358398 158.36470703 287.99975586 159.34619141 C289.08450195 160.67070313 289.08450195 160.67070313 290.19116211 162.02197266 C290.85245117 162.82763672 291.51374023 163.63330078 292.19506836 164.46337891 C293.62866211 166.45947266 293.62866211 166.45947266 293.62866211 168.45947266 C294.28866211 168.45947266 294.94866211 168.45947266 295.62866211 168.45947266 C297.13097775 170.43051077 298.51482085 172.39563916 299.87866211 174.45947266 C300.69256178 175.66471401 301.50766416 176.86914407 302.32397461 178.07275391 C302.72003906 178.65879395 303.11610352 179.24483398 303.52416992 179.84863281 C304.87918304 181.82484337 306.3004211 183.74204863 307.75366211 185.64697266 C308.22674805 186.27474609 308.69983398 186.90251953 309.18725586 187.54931641 C310.17456392 188.85770026 311.16701813 190.16221219 312.16381836 191.46337891 C317.01269494 198.0546414 320.85927026 205.13124361 324.72119141 212.32763672 C327.59669618 217.67540233 327.59669618 217.67540233 330.85131836 222.79541016 C332.43251762 225.16547147 333.43583075 227.16953095 334.37866211 229.83447266 C336.14159297 234.45696065 338.25823506 238.80931641 340.50366211 243.20947266 C356.0864474 273.9548575 366.32071884 307.57913354 372.82006836 341.35253906 C373.81913108 346.52727292 374.88733487 351.63734292 376.24829102 356.72851562 C389.43418945 406.78396968 383.91623761 465.68554796 373.19116211 515.58447266 C373.00424805 516.45694641 372.81733398 517.32942017 372.62475586 518.22833252 C366.26585127 547.61255828 358.34671685 581.54649513 342.01928711 607.02587891 C340.42267667 609.81994717 339.35315784 612.62335939 338.25366211 615.64697266 C336.34819461 620.84988877 334.10121287 625.70237896 331.50366211 630.58447266 C331.1667334 631.22408936 330.82980469 631.86370605 330.48266602 632.52270508 C328.80433627 635.6173591 327.1044994 637.99716453 324.62866211 640.45947266 C323.66211101 642.30925149 322.75078365 644.18834323 321.87866211 646.08447266 C319.53426597 650.89998904 316.95059852 654.84693973 313.56225586 658.96728516 C311.1346715 662.09617166 309.00597651 665.37181213 306.87866211 668.70947266 C306.50185303 669.30034668 306.12504395 669.8912207 305.73681641 670.5 C304.13297518 673.03245634 302.56812369 675.56738897 301.10131836 678.18212891 C299.55532018 680.57289001 298.06310372 681.92298787 295.81616211 683.64697266 C291.83812384 686.98503402 289.58100348 690.53544023 287.06225586 695.03369141 C283.78024731 700.58717181 279.16058124 704.92755353 274.62866211 709.45947266 C272.37548933 711.98038991 270.13665819 714.51283629 267.90991211 717.05712891 C265.63179637 719.45617203 263.21547521 721.40499408 260.62866211 723.45947266 C259.46878124 724.69855244 258.34151657 725.9692006 257.25366211 727.27197266 C252.17153583 733.19929056 246.6916497 738.44483322 240.77319336 743.52587891 C238.40682316 745.65949138 236.21634045 747.9171234 234.00366211 750.20947266 C228.00911796 756.25884496 221.40268015 761.32863146 214.62866211 766.45947266 C213.27302859 767.49832018 211.91756322 768.53738715 210.56225586 769.57666016 C203.1290942 775.24526 195.6286814 780.60656839 187.62866211 785.45947266 C186.35657876 786.24912918 185.08567624 787.04069224 183.81616211 787.83447266 C183.18709961 788.22505859 182.55803711 788.61564453 181.90991211 789.01806641 C180.06689884 790.18257308 178.23637177 791.36682692 176.40991211 792.55712891 C175.81927979 792.94143066 175.22864746 793.32573242 174.62011719 793.72167969 C172.90617602 794.83832778 171.19507258 795.95932793 169.48413086 797.08056641 C161.04178207 802.41071753 152.08759893 806.77480865 143.06616211 811.02197266 C141.12693839 811.93905036 139.18813267 812.85701249 137.24975586 813.77587891 C135.83194824 814.44731934 135.83194824 814.44731934 134.38549805 815.13232422 C131.79472441 816.3795298 129.23236695 817.67150291 126.67163086 818.97900391 C121.06559718 821.79843544 115.30467277 824.19839657 109.50366211 826.58447266 C108.47112305 827.01373047 107.43858398 827.44298828 106.37475586 827.88525391 C91.89411637 833.88042312 77.23062841 838.3776957 62.07006836 842.29931641 C58.67823105 843.17794623 55.30815225 844.1144951 51.94116211 845.08447266 C46.33561883 846.63383089 40.63798776 847.62124442 34.91381836 848.61572266 C31.54116672 849.23537208 28.247808 850.05733041 24.92944336 850.92041016 C6.8856502 855.50035483 -11.80233917 857.21464037 -30.37133789 857.45947266 C-31.85978673 857.48523712 -33.34823041 857.5113 -34.83666992 857.53759766 C-65.71003399 858.04744791 -96.76075819 857.68755777 -127.03198242 850.95361328 C-129.41783914 850.44965023 -131.80555076 850.02964047 -134.21118164 849.63134766 C-159.22233175 845.42853395 -183.61407186 837.17133191 -207.37133789 828.45947266 C-208.13349609 828.18006836 -208.8956543 827.90066406 -209.6809082 827.61279297 C-218.94663738 824.16924124 -227.74106182 819.92583494 -236.51831055 815.40576172 C-239.24391422 814.01387241 -241.99719233 812.67912516 -244.74633789 811.33447266 C-248.22944086 809.59756531 -251.5697877 807.76862765 -254.87133789 805.70947266 C-259.86776272 802.61915146 -265.09858113 800.09699515 -270.37133789 797.52197266 C-276.71069588 794.41462614 -282.62609568 791.23510343 -288.28149414 786.97119141 C-290.44149731 785.40872182 -292.63396258 784.19045743 -294.99633789 782.95947266 C-298.87781066 780.87309637 -301.90595984 778.38043661 -305.14477539 775.41259766 C-308.73435283 772.26384552 -312.59545417 769.48803731 -316.42993164 766.64697266 C-319.65893105 764.24559195 -322.82948539 761.7787563 -325.99243164 759.29150391 C-327.84068517 757.86813625 -329.71280206 756.47573226 -331.59399414 755.09619141 C-332.14700195 754.69013672 -332.70000977 754.28408203 -333.26977539 753.86572266 C-334.8639332 752.69817045 -336.46322694 751.53764053 -338.06274414 750.37744141 C-338.82458008 749.74451172 -339.58641602 749.11158203 -340.37133789 748.45947266 C-340.37133789 747.79947266 -340.37133789 747.13947266 -340.37133789 746.45947266 C-340.96433182 746.1911412 -341.55732574 745.92280975 -342.16828918 745.64634705 C-344.38778413 744.45061238 -345.84206064 743.24222536 -347.62011719 741.46948242 C-348.2314299 740.86447403 -348.84274261 740.25946564 -349.47257996 739.63612366 C-350.12366226 738.98099289 -350.77474457 738.32586212 -351.44555664 737.65087891 C-352.47045952 736.62884621 -352.47045952 736.62884621 -353.5160675 735.58616638 C-354.96336845 734.14022612 -356.40814799 732.69175832 -357.85058594 731.2409668 C-360.02659974 729.05436763 -362.21290722 726.87848493 -364.40063477 724.70361328 C-371.1529383 717.95749295 -377.7093091 711.22458721 -383.60375977 703.70458984 C-385.87030854 700.82569722 -388.30069641 698.11733799 -390.76586914 695.40869141 C-392.8432364 692.88653505 -394.56678696 690.18405402 -396.37133789 687.45947266 C-398.39065597 684.63070664 -400.44703371 681.82906103 -402.49633789 679.02197266 C-411.00166805 667.29307933 -418.99076982 655.35365198 -426.35180664 642.87353516 C-428.01238882 640.06628404 -429.71456347 637.29320204 -431.43383789 634.52197266 C-438.81283203 622.17634785 -444.56828144 608.87806443 -450.36352539 595.73974609 C-451.24327614 593.74922478 -452.13347369 591.76387767 -453.02758789 589.77978516 C-458.90184755 576.5002088 -463.67307167 562.71671564 -467.44946289 548.69775391 C-468.15258509 546.22788821 -468.92449143 543.8486062 -469.76977539 541.42822266 C-475.70756784 523.75701259 -478.71286298 504.88261424 -481.24633789 486.45947266 C-481.34952332 485.71660004 -481.45270874 484.97372742 -481.559021 484.20834351 C-483.94863874 466.79416717 -484.53410274 449.60981187 -484.50170898 432.04492188 C-484.49635955 428.59842508 -484.50167697 425.1520592 -484.50805664 421.70556641 C-484.51695507 402.51425189 -483.44749232 384.01243277 -480.68383789 365.02197266 C-480.55161835 364.1039386 -480.4193988 363.18590454 -480.28317261 362.24005127 C-478.08534459 347.09171676 -475.34309059 332.25600225 -471.37133789 317.45947266 C-471.11803711 316.48558594 -470.86473633 315.51169922 -470.60375977 314.50830078 C-462.42299099 283.32296418 -449.287421 253.0041935 -434.37133789 224.45947266 C-434.04037109 223.8183252 -433.7094043 223.17717773 -433.3684082 222.51660156 C-429.0888174 214.23385286 -424.52822313 206.23499895 -419.37133789 198.45947266 C-418.80286133 197.57646484 -418.23438477 196.69345703 -417.64868164 195.78369141 C-406.45851624 178.60643114 -393.96944623 161.81463994 -380.37133789 146.45947266 C-379.20429227 145.126471 -378.03764551 143.79312007 -376.87133789 142.45947266 C-376.2899707 141.79947266 -375.70860352 141.13947266 -375.10961914 140.45947266 C-373.94484692 139.11933023 -372.79641065 137.76482373 -371.66430664 136.39697266 C-371.13450195 135.75759766 -370.60469727 135.11822266 -370.05883789 134.45947266 C-369.58833008 133.88197266 -369.11782227 133.30447266 -368.63305664 132.70947266 C-367.37133789 131.45947266 -367.37133789 131.45947266 -365.37133789 131.45947266 C-364.71133789 130.13947266 -364.05133789 128.81947266 -363.37133789 127.45947266 C-362.71133789 127.45947266 -362.05133789 127.45947266 -361.37133789 127.45947266 C-361.04133789 126.46947266 -360.71133789 125.47947266 -360.37133789 124.45947266 C-358.87524414 122.98681641 -358.87524414 122.98681641 -356.93383789 121.39697266 C-353.57975774 118.55890483 -350.45444214 115.59022921 -347.37133789 112.45947266 C-341.24482609 106.27684014 -334.82465709 100.75598509 -327.91430664 95.47509766 C-325.43749616 93.51191147 -323.05153556 91.47308137 -320.66455078 89.40307617 C-315.35784889 84.81087241 -310.04723486 80.7762583 -304.03149414 77.12353516 C-301.30608973 75.41865663 -298.75742545 73.57236902 -296.18383789 71.64697266 C-279.77110462 59.60326275 -261.63175798 50.0562317 -243.49633789 40.89697266 C-242.88532227 40.58679199 -242.27430664 40.27661133 -241.64477539 39.95703125 C-238.66454975 38.47763274 -235.67897052 37.17827582 -232.55102539 36.05712891 C-229.46789512 34.9396189 -226.61318663 33.60012579 -223.70336914 32.08837891 C-217.67443302 29.01229707 -211.41184932 26.71008374 -205.05883789 24.39697266 C-203.35824219 23.7656543 -203.35824219 23.7656543 -201.62329102 23.12158203 C-192.20677546 19.66081136 -182.70152624 16.57029962 -172.99633789 14.02197266 C-170.04281992 13.24473108 -167.202635 12.39715898 -164.33618164 11.33837891 C-140.64699983 2.60792269 -114.34692636 0.96759445 -89.37133789 -1.54052734 C-88.19877441 -1.66057129 -87.02621094 -1.78061523 -85.81811523 -1.90429688 C-57.45453943 -4.7385425 -28.14321323 -4.96251197 0 0 Z M-80.37133789 2.45947266 C-81.86538269 2.58160252 -83.3619296 2.67738543 -84.85961914 2.74072266 C-85.64788086 2.77810547 -86.43614258 2.81548828 -87.24829102 2.85400391 C-88.89148384 2.92516061 -90.53471428 2.99545333 -92.17797852 3.06494141 C-96.09385451 2.87605753 -96.09385451 2.87605753 -99.37133789 4.45947266 C-100.75954391 4.62776292 -102.15511741 4.7359111 -103.55102539 4.81884766 C-126.18313502 6.35643812 -147.57288877 10.40945026 -169.04663086 17.703125 C-172.22293529 18.73654142 -175.44026017 19.54079274 -178.68383789 20.33447266 C-194.31157914 24.39250491 -209.51257176 30.23653307 -223.98071289 37.37329102 C-228.13816683 39.42379389 -232.22872809 41.19951304 -236.62133789 42.70947266 C-247.15187899 46.5877282 -256.72386951 52.80369698 -266.37133789 58.45947266 C-267.10739258 58.8884082 -267.84344727 59.31734375 -268.60180664 59.75927734 C-286.30577313 70.09818508 -303.09364243 81.32907325 -318.89868164 94.41650391 C-320.57218894 95.79919635 -322.2588998 97.16603629 -323.95727539 98.51806641 C-326.04669529 100.19839277 -328.06029676 101.9233578 -330.05883789 103.70947266 C-332.86695387 106.19485615 -335.74225835 108.51785444 -338.72290039 110.79150391 C-345.31418458 116.04828194 -351.19741106 121.98545091 -357.13134766 127.95874023 C-359.05875477 129.89688907 -360.9966533 131.82408389 -362.93579102 133.75048828 C-369.21379688 140.02178822 -375.13344143 146.27291028 -380.37133789 153.45947266 C-381.71782562 155.09084115 -383.07088217 156.71683732 -384.43383789 158.33447266 C-390.50148717 165.71712443 -396.09492899 173.45192713 -401.71264648 181.17919922 C-403.18338645 183.20108784 -404.66122276 185.21753914 -406.14086914 187.23291016 C-411.92033385 195.15638783 -417.19764117 203.33874407 -422.30200195 211.71142578 C-423.20740013 213.19148308 -424.12760593 214.66246646 -425.05102539 216.13134766 C-431.57127047 226.63422892 -436.90571657 237.74048266 -441.16821289 249.33447266 C-442.39364983 252.51742576 -443.78318524 255.56665129 -445.24633789 258.64697266 C-448.35008295 265.25136111 -450.98923325 271.98714482 -453.58227539 278.80322266 C-454.73159078 281.82284472 -455.92158791 284.81924156 -457.16040039 287.80322266 C-461.72510276 298.90557094 -464.87574634 310.15497877 -467.71899414 321.80908203 C-468.44721855 324.76776623 -469.21571143 327.71405697 -470.00219727 330.65771484 C-473.92842014 346.01131272 -475.96707262 361.46200853 -477.49633789 377.20947266 C-477.6663618 378.90093418 -477.83693329 380.59234076 -478.00805664 382.28369141 C-478.41241826 386.30850348 -478.80022688 390.33459925 -479.17529297 394.36224365 C-479.34598254 396.18822882 -479.52313606 398.01360748 -479.70141602 399.83886719 C-480.58997557 409.82237709 -480.61487506 419.8186205 -480.62133789 429.83447266 C-480.62201263 430.78044312 -480.62268738 431.72641357 -480.62338257 432.7010498 C-480.59784465 455.39686218 -478.4466447 477.54282548 -474.93383789 499.95947266 C-474.64440308 501.81040527 -474.64440308 501.81040527 -474.34912109 503.69873047 C-472.49025713 514.88677271 -469.60925531 525.65075532 -466.18383789 536.45947266 C-465.13947892 539.76996962 -464.33897547 542.69814548 -463.87133789 546.14697266 C-463.29483391 549.96631155 -462.02528772 553.10580968 -460.50415039 556.63916016 C-459.59925804 558.89203008 -458.82893909 561.10442011 -458.09008789 563.41259766 C-455.97209078 569.84912565 -453.34605878 576.08092878 -450.74633789 582.33447266 C-450.34916565 583.29273453 -450.34916565 583.29273453 -449.94396973 584.27035522 C-445.72307065 594.4365915 -441.28558113 604.47076503 -436.41381836 614.34375 C-435.34732714 616.50820266 -434.29811378 618.68048361 -433.25024414 620.85400391 C-430.20318969 627.12382199 -427.10765631 633.20238753 -423.07446289 638.90869141 C-420.15432006 643.28220807 -417.58465876 647.87087629 -414.97338867 652.43383789 C-412.68734597 656.38627827 -410.29807608 659.93824077 -407.37133789 663.45947266 C-405.71406853 665.68649423 -404.10530895 667.94739776 -402.49633789 670.20947266 C-401.83988281 671.12720459 -401.83988281 671.12720459 -401.17016602 672.06347656 C-398.16022188 676.29051406 -395.27988579 680.58243386 -392.52758789 684.98291016 C-392.14602539 685.47017578 -391.76446289 685.95744141 -391.37133789 686.45947266 C-390.71133789 686.45947266 -390.05133789 686.45947266 -389.37133789 686.45947266 C-389.11739258 687.18521484 -388.86344727 687.91095703 -388.60180664 688.65869141 C-381.28049548 705.32339015 -361.76124744 720.22708611 -349.02246094 732.82324219 C-347.58398149 734.24874703 -346.1545893 735.68341031 -344.72680664 737.11962891 C-337.67362274 744.12602552 -330.32741434 750.42156361 -322.30102539 756.27978516 C-318.61886675 759.01931119 -315.11661474 761.95081017 -311.62524414 764.92822266 C-309.45755742 766.63555439 -309.45755742 766.63555439 -306.77368164 766.86572266 C-304.37133789 767.45947266 -304.37133789 767.45947266 -302.93383789 769.74853516 C-302.41821289 770.64314453 -301.90258789 771.53775391 -301.37133789 772.45947266 C-298.60366824 774.75222252 -298.60366824 774.75222252 -295.37133789 776.83447266 C-294.78884277 777.2238501 -294.20634766 777.61322754 -293.60620117 778.0144043 C-292.41954173 778.80426943 -291.2296147 779.58924881 -290.03637695 780.36914062 C-288.59435683 781.31343122 -287.16518815 782.27729229 -285.73852539 783.24462891 C-278.46600445 788.06637868 -270.76135691 792.0281098 -263.01977539 796.02978516 C-256.96798632 799.1697802 -250.97620102 802.38417819 -245.24633789 806.08447266 C-241.75665338 808.29643803 -238.19491807 809.87730155 -234.37133789 811.45947266 C-231.8351166 812.70764445 -229.31630945 813.98609267 -226.80102539 815.27587891 C-224.3631695 816.46345179 -221.88894056 817.45487191 -219.37133789 818.45947266 C-218.17678239 819.07087956 -216.98892601 819.69558826 -215.80883789 820.33447266 C-210.534096 822.99630901 -204.98565965 824.66089127 -199.37133789 826.45947266 C-197.26988342 827.15944279 -195.17087078 827.86646999 -193.07177734 828.57348633 C-183.64118869 831.74482572 -174.1762775 834.80020032 -164.67211914 837.74365234 C-163.17060096 838.2108055 -161.67051742 838.68260244 -160.17211914 839.15966797 C-146.60337437 843.47868099 -132.8890779 846.39331256 -118.63305664 847.15087891 C-116.37133789 847.45947266 -116.37133789 847.45947266 -113.98071289 848.42041016 C-110.95212238 849.62640578 -108.16236799 850.07781649 -104.93383789 850.52197266 C-103.29608398 850.7559375 -103.29608398 850.7559375 -101.62524414 850.99462891 C-90.89642507 852.26708349 -80.15783203 852.61050424 -69.36352539 852.59228516 C-68.07680939 852.59324188 -66.79009338 852.59419861 -65.46438599 852.59518433 C-62.76018042 852.59664378 -60.05600826 852.59456618 -57.35180664 852.58984375 C-53.95005341 852.58418107 -50.54837887 852.58752605 -47.14662838 852.59325886 C-16.95774897 852.68286413 -16.95774897 852.68286413 12.94116211 849.02197266 C14.17543945 848.80476563 15.4097168 848.58755859 16.68139648 848.36376953 C22.4421748 847.32962442 28.01323635 846.12252936 33.62866211 844.45947266 C37.01799596 843.75486927 40.43107654 843.18443581 43.84350586 842.60400391 C47.68350261 841.92117466 51.0348997 840.9372815 54.62866211 839.45947266 C56.58630223 838.95797843 58.54453968 838.45823683 60.50952148 837.98632812 C64.00117476 837.11824198 67.43470997 836.06077019 70.87866211 835.02197266 C75.83485748 833.53053744 80.75393149 832.17845806 85.81616211 831.08447266 C91.53277241 829.69582238 96.34573578 827.20561758 101.53491211 824.47900391 C106.3908436 822.00340704 111.44392931 820.03748401 116.50366211 818.02197266 C125.81289659 814.28704481 134.76377614 810.14428041 143.62866211 805.45947266 C144.28479492 805.1149707 144.94092773 804.77046875 145.61694336 804.41552734 C149.97062228 802.12667576 154.30345969 799.80165829 158.62866211 797.45947266 C159.49362305 796.99669922 160.35858398 796.53392578 161.24975586 796.05712891 C165.85108891 793.56108515 170.18824602 790.80245441 174.51538086 787.85791016 C176.86484096 786.30318425 179.30439005 784.94576309 181.76538086 783.57666016 C184.95734705 781.66281879 187.94481635 779.4566758 190.97241211 777.29541016 C193.55406212 775.51103441 196.19174412 773.89202615 198.87866211 772.27197266 C204.87115577 768.5118102 210.03843467 763.96734195 215.33959961 759.31494141 C217.94702382 757.02990859 220.61458034 754.8670099 223.37866211 752.77197266 C230.14620845 747.59827835 236.31124666 742.11687679 241.62866211 735.45947266 C242.90922162 734.25783431 244.22127164 733.08864802 245.56616211 731.95947266 C249.50487356 728.58343427 253.28212186 725.2239047 256.44116211 721.08447266 C258.33528237 718.81152834 260.12177282 717.15051404 262.37866211 715.27197266 C266.42807784 711.82582184 269.56821137 707.94874945 272.81225586 703.75244141 C274.90217875 701.11419467 277.21742114 698.80373471 279.62866211 696.45947266 C281.57815106 694.19555001 283.33947867 691.91973458 284.92944336 689.38916016 C287.52482628 685.26173179 289.95192041 681.98500448 293.75366211 678.89697266 C297.17092683 676.08161252 298.8685806 673.6024585 300.63256836 669.58056641 C302.72127486 665.13285022 305.54133772 660.48173213 309.08544922 657.0480957 C310.62445432 655.46380426 311.66659664 653.95911768 312.78491211 652.06103516 C313.16776367 651.41650391 313.55061523 650.77197266 313.94506836 650.10791016 C314.3356543 649.44017578 314.72624023 648.77244141 315.12866211 648.08447266 C315.51924805 647.42447266 315.90983398 646.76447266 316.31225586 646.08447266 C317.42058135 644.21114135 318.52478697 642.33542841 319.62866211 640.45947266 C320.98183782 638.17778808 322.33744117 635.90666309 323.78515625 633.68359375 C326.89731235 628.86427546 329.32563027 623.98399856 331.56616211 618.70947266 C335.08754441 610.60455876 338.92234938 602.71429563 342.96850586 594.85791016 C347.69289862 585.58144291 351.11638119 576.18339727 354.14819336 566.22900391 C355.22023933 562.72937435 356.35447299 559.25483488 357.51538086 555.78369141 C362.13922963 541.86872345 365.88637024 527.93077315 368.95581055 513.5925293 C369.42181939 511.42261222 369.89985302 509.25525587 370.38745117 507.09008789 C372.24665606 498.73243574 373.62114247 490.38180983 374.75366211 481.89697266 C374.9225293 480.68589844 375.09139648 479.47482422 375.26538086 478.22705078 C376.92787146 466.00709031 377.78426649 453.9205435 377.76147461 441.58837891 C377.76243134 440.42241684 377.76338806 439.25645477 377.76437378 438.05516052 C377.76504857 435.61579331 377.76324375 433.17642422 377.7590332 430.73706055 C377.75364064 427.00712078 377.75901954 423.27729954 377.76538086 419.54736328 C377.76472062 417.16520156 377.76344058 414.78303991 377.76147461 412.40087891 C377.76349884 411.29144424 377.76552307 410.18200958 377.76760864 409.03895569 C377.75248349 404.05488129 377.6211679 399.36300316 376.62866211 394.45947266 C376.50797715 393.06179776 376.41157007 391.66166167 376.34741211 390.26025391 C376.3100293 389.52613281 376.27264648 388.79201172 376.23413086 388.03564453 C376.16327354 386.51483648 376.09296934 384.99400257 376.02319336 383.47314453 C375.85879591 380.26172545 375.65097677 377.52641663 374.62866211 374.45947266 C374.35967238 372.33679286 374.11340161 370.2112125 373.87866211 368.08447266 C372.75481817 358.88969677 370.47093936 350.0094642 368.25024414 341.03027344 C367.50445946 337.94578298 366.82381151 334.85040308 366.15698242 331.74804688 C361.84298663 311.71102867 356.18869108 292.63598015 348.78637695 273.50561523 C347.65363417 270.52517834 346.59063453 267.52649554 345.53491211 264.51806641 C344.13045445 260.63036476 342.52121598 257.24782401 340.25366211 253.77197266 C337.39455063 249.08400522 335.383996 244.48289596 333.56616211 239.33447266 C331.26419172 232.83425227 328.37608459 227.26490585 324.62866211 221.45947266 C323.80320535 220.00843389 322.99055728 218.55003047 322.19116211 217.08447266 C315.61273944 205.15537551 315.61273944 205.15537551 307.68725586 194.10791016 C304.98561215 190.63217119 302.5104633 187.01454053 300.00366211 183.39697266 C295.30857596 176.6539503 290.337777 170.21494529 285.08129883 163.90063477 C282.57275119 160.88346897 280.15659987 157.85458666 277.89428711 154.64697266 C275.68140106 151.5336709 273.35619339 149.12357298 270.62866211 146.45947266 C267.13138419 142.64044517 263.67079157 138.80811078 260.50366211 134.70947266 C258.16691036 131.90537055 255.43343961 129.78684122 252.62866211 127.45947266 C251.62292433 126.13046201 250.62070803 124.79873465 249.62866211 123.45947266 C248.96866211 123.45947266 248.30866211 123.45947266 247.62866211 123.45947266 C247.40178711 122.84072266 247.17491211 122.22197266 246.94116211 121.58447266 C245.7884642 119.23858683 245.7884642 119.23858683 243.19116211 118.52197266 C240.62866211 117.45947266 240.62866211 117.45947266 239.28100586 115.15869141 C237.40591251 112.09559566 235.44726411 110.42174748 232.62866211 108.20947266 C231.65155273 107.43474609 230.67444336 106.66001953 229.66772461 105.86181641 C228.66483398 105.06904297 227.66194336 104.27626953 226.62866211 103.45947266 C224.75197743 101.89899649 222.87693086 100.33654782 221.00366211 98.77197266 C217.05835103 95.53118141 213.04531871 92.62106342 208.69897461 89.94384766 C206.62866211 88.45947266 206.62866211 88.45947266 204.19897461 86.01416016 C201.71346451 83.54375955 199.31175653 81.73679389 196.37866211 79.83447266 C194.82211914 78.82126953 194.82211914 78.82126953 193.23413086 77.78759766 C192.66484863 77.42085938 192.09556641 77.05412109 191.5090332 76.67626953 C189.41190838 75.31921031 187.32683863 73.9446164 185.24194336 72.56884766 C183.72528699 71.57364331 182.20836152 70.57884894 180.69116211 69.58447266 C179.60883301 68.86976807 179.60883301 68.86976807 178.50463867 68.140625 C174.97258145 65.84173582 171.64746375 63.82791001 167.62866211 62.45947266 C167.62866211 61.79947266 167.62866211 61.13947266 167.62866211 60.45947266 C157.12732094 54.4267873 146.50590009 48.78319124 135.62866211 43.45947266 C134.88358398 43.07275391 134.13850586 42.68603516 133.37084961 42.28759766 C131.45378058 41.30934245 131.45378058 41.30934245 128.50366211 40.64697266 C125.50258755 39.83194399 122.94193874 38.65651986 120.19116211 37.20947266 C114.19219772 34.16827763 108.02319637 31.69545929 101.75366211 29.27197266 C100.65924805 28.83433594 99.56483398 28.39669922 98.43725586 27.94580078 C92.02429835 25.46030542 86.05780697 23.94604749 79.25830078 22.98754883 C76.14447563 22.36223978 74.11553784 21.20858566 71.48950195 19.49853516 C67.32287712 17.17196007 62.52179505 16.19336493 57.94116211 14.95947266 C56.83192383 14.65686523 55.72268555 14.35425781 54.57983398 14.04248047 C38.489678 9.73113195 22.51479312 6.98869789 5.96069336 5.18603516 C2.02057714 4.75386649 -1.88476964 4.24288756 -5.79711914 3.60791016 C-20.87820462 1.27629497 -35.82789725 1.19114636 -51.05883789 1.20947266 C-52.16316162 1.21024811 -53.26748535 1.21102356 -54.40527344 1.21182251 C-57.58547805 1.21829379 -60.76542257 1.23458727 -63.94555664 1.25634766 C-64.90709152 1.26073349 -65.8686264 1.26511932 -66.85929871 1.26963806 C-71.48274674 1.31825424 -75.81638086 1.58469079 -80.37133789 2.45947266 Z " fill="#020307" transform="translate(1011.371337890625,365.54052734375)"/>
<path d="M0 0 C68.97 0 137.94 0 209 0 C209 214.83 209 429.66 209 651 C205.25135842 652.24954719 201.76758823 652.13803281 197.8633728 652.12698364 C197.02438686 652.12854363 196.18540092 652.13010362 195.32099116 652.13171089 C192.49962096 652.13571098 189.67830423 652.13253507 186.85693359 652.12939453 C184.83843453 652.13074899 182.81993572 652.13252917 180.80143738 652.13470459 C175.31204739 652.13927303 169.82267614 652.13749192 164.33328581 652.1343255 C158.59886848 652.13179957 152.86445279 652.13414003 147.1300354 652.13571167 C137.50107535 652.13753238 127.87212295 652.13512931 118.24316406 652.13037109 C107.09424837 652.12492558 95.94535096 652.12669363 84.79643571 652.1321975 C75.23889998 652.13672773 65.68136976 652.13737971 56.1238333 652.13475883 C50.40895197 652.13319596 44.69407924 652.13300263 38.97919846 652.13629532 C33.60963136 652.13917284 28.24008797 652.13720056 22.87052345 652.13140106 C20.8939461 652.13007295 18.91736676 652.13046843 16.94079018 652.13266373 C14.25471935 652.13537317 11.56872574 652.13199669 8.88265991 652.12698364 C8.08997471 652.12921436 7.29728951 652.13144509 6.48058355 652.13374341 C1.11415005 652.11415005 1.11415005 652.11415005 0 651 C-0.09704458 649.56988101 -0.12447378 648.13497825 -0.1241985 646.70157045 C-0.12644579 645.76616856 -0.12869308 644.83076667 -0.13100848 643.86701927 C-0.12838146 642.8252174 -0.12575445 641.78341553 -0.12304783 640.71004391 C-0.1247786 639.05961624 -0.1247786 639.05961624 -0.12654433 637.37584659 C-0.12921966 633.63897236 -0.12468134 629.90214005 -0.12025452 626.16526794 C-0.12069003 623.47915873 -0.12152219 620.79305232 -0.12284368 618.10694367 C-0.12492328 612.24109246 -0.1232637 606.37525136 -0.11920547 600.50940132 C-0.11318767 591.78700207 -0.11286806 583.06460924 -0.11374746 574.3422083 C-0.11506357 559.67204499 -0.11171161 545.00188617 -0.10573006 530.33172417 C-0.09981983 515.79936132 -0.09596549 501.26700035 -0.09487724 486.73463631 C-0.0948085 485.83219329 -0.09473976 484.92975028 -0.09466894 483.99996051 C-0.09433062 479.41720023 -0.09402923 474.83443995 -0.09374207 470.25167967 C-0.09163977 437.76356967 -0.08489718 405.27546213 -0.07543945 372.78735352 C-0.06626007 341.21899427 -0.05917398 309.6506357 -0.05493164 278.08227539 C-0.05480011 277.10977652 -0.05466859 276.13727765 -0.05453308 275.13530911 C-0.05321459 265.36937538 -0.05193877 255.60344165 -0.05069422 245.83750792 C-0.04815777 225.94188859 -0.04533652 206.04626929 -0.04234314 186.15065002 C-0.04220585 185.23581403 -0.04206856 184.32097803 -0.04192711 183.37841972 C-0.0377027 155.32881252 -0.03227074 127.27920574 -0.02565002 99.229599 C-0.02546247 98.43299578 -0.02527491 97.63639256 -0.02508167 96.81564984 C-0.01746506 64.54376637 -0.00857204 32.27188323 0 0 Z M4 4 C4 216.19 4 428.38 4 647 C70 647 136 647 204 647 C204 434.81 204 222.62 204 4 C138 4 72 4 4 4 Z " fill="#0A0A0A" transform="translate(175,562)"/>
<path d="M0 0 C0.74185547 0.00725098 1.48371094 0.01450195 2.24804688 0.02197266 C32.17651719 0.44279719 63.93943255 9.31305428 90 24 C90.99257812 24.52207031 91.98515625 25.04414062 93.0078125 25.58203125 C99.56290305 29.04216958 105.8065158 32.93291443 112 37 C113.43279297 37.91458984 113.43279297 37.91458984 114.89453125 38.84765625 C118.43029977 41.29823292 121.6373312 43.98699525 124.875 46.8125 C125.49068848 47.34584961 126.10637695 47.87919922 126.74072266 48.42871094 C127.95470028 49.48114477 129.16747474 50.53496842 130.37890625 51.59033203 C131.71578602 52.75285369 133.06004227 53.90688681 134.40625 55.05859375 C141.17732272 60.87580504 147.36544048 67.07754117 153 74 C153.598125 74.5775 154.19625 75.155 154.8125 75.75 C156 77 156 77 156 79 C156.66 79 157.32 79 158 79 C159.3540932 80.98600337 160.68457624 82.98817543 162 85 C162.62519531 85.60328125 163.25039062 86.2065625 163.89453125 86.828125 C166.34505547 89.35593848 167.99774126 91.98402621 169.8125 95 C170.15216797 95.56307861 170.49183594 96.12615723 170.84179688 96.70629883 C171.90068349 98.46726262 172.95041394 100.23348091 174 102 C174.69129913 103.149804 175.382703 104.29954502 176.07421875 105.44921875 C181 113.73212475 181 113.73212475 181 116 C181.66 116 182.32 116 183 116 C183.77209283 118.14538048 184.54260414 120.29133013 185.3125 122.4375 C185.95638672 124.22994141 185.95638672 124.22994141 186.61328125 126.05859375 C187.60136928 128.83377708 188.53690416 131.62219323 189.453125 134.421875 C190.44802107 137.4296036 191.517913 140.38636499 192.68359375 143.33203125 C197.16326814 154.69593898 200.16048922 165.92564096 202 178 C202.17732666 179.1019873 202.35465332 180.20397461 202.53735352 181.33935547 C204.14289195 192.43021776 204.33929615 203.4209792 204.31567383 214.61621094 C204.31251876 217.73147799 204.3360476 220.84578726 204.36132812 223.9609375 C204.41315388 240.23172884 203.05794277 256.21768798 198.625 271.9375 C198.41439941 272.71125977 198.20379883 273.48501953 197.98681641 274.28222656 C196.09660042 281.0388029 193.73255337 287.53517862 191 294 C190.72285156 294.65871094 190.44570312 295.31742188 190.16015625 295.99609375 C189.44636491 297.66675131 188.72323723 299.33340987 188 301 C187.7628125 301.65097656 187.525625 302.30195312 187.28125 302.97265625 C182.22698515 316.61449148 175.00525707 329.59596266 166 341 C165.03961607 342.31100028 164.08117514 343.6234269 163.125 344.9375 C160.41438577 348.52419673 157.59731692 352.02147188 154.75 355.5 C154.31316895 356.04132568 153.87633789 356.58265137 153.42626953 357.14038086 C152.32950043 358.46576804 151.1693128 359.73815166 150 361 C149.34 361 148.68 361 148 361 C147.72921631 361.59530518 147.45843262 362.19061035 147.17944336 362.80395508 C146.01394487 364.97403559 144.85807034 366.39984624 143.12890625 368.13671875 C142.56034912 368.70938477 141.99179199 369.28205078 141.40600586 369.87207031 C140.79764893 370.47116211 140.18929199 371.07025391 139.5625 371.6875 C138.93287354 372.31108398 138.30324707 372.93466797 137.65454102 373.57714844 C132.3720492 378.74926782 126.83804185 383.46390782 121 388 C120.030625 388.79792969 119.06125 389.59585937 118.0625 390.41796875 C109.36045435 397.49785606 99.91364677 402.8003634 90 408 C89.03835938 408.515625 88.07671875 409.03125 87.0859375 409.5625 C80.60671747 412.9392922 73.83912636 415.45415781 67 418 C65.71280781 418.50072173 64.4263696 419.00338528 63.140625 419.5078125 C26.03400402 433.97202612 -17.95304586 436.19618714 -56.6484375 426.78125 C-60.2709314 425.93684583 -63.90669659 425.24749779 -67.5625 424.5625 C-76.40616953 422.81200046 -84.77136482 420.37432562 -92.74609375 416.12890625 C-95.75050606 414.62409662 -98.83770989 413.35877586 -101.9375 412.0625 C-108.45674625 409.29147135 -114.85610379 406.52225061 -120.41015625 402.06640625 C-122.97427525 400.02052548 -125.58909825 398.29071699 -128.375 396.5625 C-132.69835493 393.83627078 -136.96367955 391.13936035 -141 388 C-141 387.34 -141 386.68 -141 386 C-141.5775 385.9175 -142.155 385.835 -142.75 385.75 C-145.7066989 384.7644337 -146.84433354 383.2754257 -149 381 C-150.1575703 379.96886335 -151.32555105 378.94937028 -152.5 377.9375 C-153.19480469 377.3290625 -153.88960937 376.720625 -154.60546875 376.09375 C-156.33020209 374.58566342 -158.06297851 373.08675765 -159.80078125 371.59375 C-167.07522108 365.23145066 -173.02541317 358.32458817 -178.80419922 350.59228516 C-180.45955703 348.38807045 -182.1679142 346.22677509 -183.875 344.0625 C-188.30139115 338.33980859 -192.29533738 332.71294509 -195.69140625 326.30859375 C-197.02155804 323.87522991 -197.02155804 323.87522991 -198.9296875 321.25390625 C-201.33443474 317.47436954 -202.93652833 313.65810284 -204.5625 309.5 C-206.86795548 303.66019988 -206.86795548 303.66019988 -209.55078125 297.98828125 C-211.33149417 294.31646081 -212.47346741 290.5934701 -213.625 286.6875 C-214.67976085 281.97779184 -214.67976085 281.97779184 -217 278 C-217.57628866 275.36621639 -218.1011997 272.7395965 -218.59375 270.08984375 C-218.74533569 269.28897842 -218.89692139 268.4881131 -219.05310059 267.66297913 C-219.37434863 265.96097431 -219.69366729 264.2586044 -220.01123047 262.5559082 C-220.49358035 259.97189099 -220.98259934 257.38920595 -221.47265625 254.80664062 C-221.78425679 253.1511174 -222.09546669 251.49552059 -222.40625 249.83984375 C-222.62347717 248.69249001 -222.62347717 248.69249001 -222.84509277 247.5219574 C-224.23594687 240.03178636 -225.15547506 232.69324981 -225.16796875 225.0546875 C-225.17129715 224.32234894 -225.17462555 223.59001038 -225.17805481 222.83547974 C-225.18308292 221.29429749 -225.18546442 219.75310451 -225.18530273 218.21191406 C-225.18747508 215.90150116 -225.20563591 213.5915779 -225.22460938 211.28125 C-225.25987594 202.01365534 -224.61090821 193.15326309 -223 184 C-222.87423584 183.23719727 -222.74847168 182.47439453 -222.61889648 181.68847656 C-217.99144634 154.2183432 -210.71728302 123.14660377 -193 101 C-191.3980753 98.20285688 -189.87388858 95.3728981 -188.3671875 92.5234375 C-187 90 -187 90 -185 87 C-184.34 87 -183.68 87 -183 87 C-182.690625 86.38125 -182.38125 85.7625 -182.0625 85.125 C-181.375 83.75 -180.6875 82.375 -180 81 C-179.34 81 -178.68 81 -178 81 C-177.76925781 80.45214844 -177.53851562 79.90429688 -177.30078125 79.33984375 C-174.26880854 73.88593487 -169.28518863 69.50982605 -165 65 C-164.49500977 64.46101074 -163.99001953 63.92202148 -163.46972656 63.36669922 C-155.58366678 54.98302452 -147.1337673 47.93601069 -137.76416016 41.26025391 C-136.2719753 40.19428958 -134.79615947 39.1054674 -133.32421875 38.01171875 C-106.84152942 18.65042487 -76.71306707 8.60619968 -45 2 C-44.12408203 1.81606689 -43.24816406 1.63213379 -42.34570312 1.44262695 C-28.67020443 -1.13789752 -13.84847895 -0.21527445 0 0 Z M-24.78515625 4.015625 C-38.23135133 4.27557484 -51.0395858 7.64953662 -64 11 C-64.89122559 11.22284668 -65.78245117 11.44569336 -66.70068359 11.67529297 C-89.29260153 17.40163996 -109.87344953 28.13149204 -129.2578125 40.88354492 C-131 42 -131 42 -133 43 C-133 43.66 -133 44.32 -133 45 C-133.57492187 45.26683594 -134.14984375 45.53367187 -134.7421875 45.80859375 C-158.45382227 58.32078857 -180.19211135 86.15516014 -193 109 C-193.33644531 109.59522461 -193.67289063 110.19044922 -194.01953125 110.80371094 C-206.13647789 132.39371216 -213.39472939 155.1154882 -217.8125 179.4375 C-218.01955566 180.57364746 -218.22661133 181.70979492 -218.43994141 182.88037109 C-222.26208997 205.07588081 -221.78043036 226.87802798 -218 249 C-217.74259033 250.51932129 -217.74259033 250.51932129 -217.47998047 252.06933594 C-214.07097492 271.67035623 -208.63517817 289.62420804 -200.4375 307.75 C-199.76726807 309.23222046 -199.76726807 309.23222046 -199.08349609 310.74438477 C-196.20921341 316.90168804 -192.88398475 322.43541355 -189 328 C-188.15249551 329.28965996 -187.30981173 330.58250454 -186.47265625 331.87890625 C-182.54550047 337.89953262 -178.68086331 343.75479907 -173.77734375 349.0390625 C-171.56639359 351.47839652 -169.54845829 354.04801875 -167.5 356.625 C-164.42174134 360.41523686 -161.33964859 363.69564771 -157.5390625 366.75 C-155.19020836 368.65769879 -153.13870261 370.86129739 -151 373 C-144.30069248 380.22797261 -144.30069248 380.22797261 -136 384 C-136 384.66 -136 385.32 -136 386 C-133.90228373 387.48411915 -131.81273259 388.84792331 -129.625 390.1875 C-125.39436219 392.82313508 -121.2873497 395.48532714 -117.3125 398.5 C-105.64376905 406.77174842 -91.32446173 411.99725556 -78 417 C-77.19691406 417.30550781 -76.39382813 417.61101562 -75.56640625 417.92578125 C-68.88395305 420.31675074 -61.95762461 421.67280567 -55 423 C-54.1445459 423.16677246 -53.2890918 423.33354492 -52.40771484 423.50537109 C-12.80151917 431.10363236 27.30154765 428.83040853 65 414 C65.93569824 413.63825684 66.87139648 413.27651367 67.83544922 412.90380859 C70.7717113 411.76390536 73.69980972 410.60550273 76.625 409.4375 C77.51340576 409.0859082 78.40181152 408.73431641 79.31713867 408.37207031 C85.59514461 405.80113924 91.28321948 402.64322221 97 399 C97.67514648 398.57017822 98.35029297 398.14035645 99.04589844 397.69750977 C100.89608575 396.50194179 102.73229642 395.28841209 104.5625 394.0625 C105.19873291 393.63646484 105.83496582 393.21042969 106.49047852 392.77148438 C114.05595059 387.78066911 114.05595059 387.78066911 121 382 C121 381.34 121 380.68 121 380 C121.680625 379.814375 122.36125 379.62875 123.0625 379.4375 C127.21162482 377.40707722 129.85667107 374.323138 133 371 C135.87054246 368.09929423 138.77920142 365.24102298 141.70703125 362.3984375 C152.93040792 351.5977996 152.93040792 351.5977996 162 339 C162 338.34 162 337.68 162 337 C162.66 337 163.32 337 164 337 C165.47704336 334.83959425 166.81509747 332.69742046 168.125 330.4375 C168.52678467 329.74914062 168.92856934 329.06078125 169.3425293 328.3515625 C170.17356197 326.9189846 171.00026251 325.48388546 171.82275391 324.04638672 C172.84448899 322.27032213 173.89440194 320.51052502 174.94921875 318.75390625 C185.98051554 299.48960809 194.21300937 276.83060972 198 255 C198.12552246 254.3198584 198.25104492 253.6397168 198.38037109 252.93896484 C205.38373227 213.13604047 198.46811485 171.50066842 185 134 C184.58766113 132.83621826 184.58766113 132.83621826 184.16699219 131.64892578 C181.5115177 124.23755386 178.48872194 117.71087765 173.72265625 111.39453125 C171.88174528 108.83562325 170.41254242 106.22197955 168.9375 103.4375 C166.29108861 98.45685443 163.58788575 93.37678834 160 89 C159.34 89 158.68 89 158 89 C157.7429126 88.43579346 157.4858252 87.87158691 157.22094727 87.2902832 C152.73291998 78.87153016 145.27575347 71.96073406 138.5625 65.3125 C137.76779297 64.51005859 136.97308594 63.70761719 136.15429688 62.88085938 C131.05969265 57.80283645 125.74824722 53.31339968 120 49 C118.53880487 47.8369196 117.08014332 46.67064304 115.625 45.5 C110.63534753 41.63064947 105.39619821 38.27171072 100 35 C98.99710938 34.38382813 97.99421875 33.76765625 96.9609375 33.1328125 C73.57981996 19.23806723 47.90873897 10.05474149 21 6 C19.61554688 5.73703125 19.61554688 5.73703125 18.203125 5.46875 C13.83118287 4.82895359 9.47406125 4.63093367 5.0625 4.4375 C4.12954102 4.3957666 3.19658203 4.3540332 2.23535156 4.31103516 C-6.78731899 3.93108427 -15.75678815 3.97835619 -24.78515625 4.015625 Z " fill="#020307" transform="translate(970,577)"/>
<path d="M0 0 C1.01578125 0.81210937 2.0315625 1.62421875 3.078125 2.4609375 C7.68700245 6.46597806 11.23001602 11.22105105 15 16 C15.53753906 16.62519531 16.07507813 17.25039063 16.62890625 17.89453125 C26.17537316 29.41792319 30.69744345 44.67183759 34 59 C34.18546387 59.74781738 34.37092773 60.49563477 34.56201172 61.26611328 C41.07340003 89.74545038 34.03060592 116.25403681 20 141 C16.49353126 146.46218393 12.70106859 151.65480318 8.375 156.5 C7.66085937 157.3146875 6.94671875 158.129375 6.2109375 158.96875 C3.89039711 161.10069523 1.97752119 162.03883526 -1 163 C-1 163.66 -1 164.32 -1 165 C-2.3984375 166.20166016 -2.3984375 166.20166016 -4.375 167.5390625 C-5.46941406 168.280354 -5.46941406 168.280354 -6.5859375 169.03662109 C-7.38257813 169.56078613 -8.17921875 170.08495117 -9 170.625 C-9.81726563 171.16334473 -10.63453125 171.70168945 -11.4765625 172.25634766 C-41.04354238 191.40508637 -75.46390144 198.91947308 -110.3515625 192.09765625 C-140.6858042 185.34883537 -169.30148925 167.65450578 -186.5625 141.5 C-202.309133 116.67746821 -207.89865801 88.01749027 -201.51220703 59.16113281 C-197.78033166 43.41539365 -191.9918591 27.15625096 -181 15 C-180.2884375 14.18273437 -179.576875 13.36546875 -178.84375 12.5234375 C-176.59933851 9.97925872 -174.30831349 7.48618704 -172 5 C-171.39800781 4.32066406 -170.79601562 3.64132812 -170.17578125 2.94140625 C-126.51668091 -44.12708154 -46.17062992 -38.3680514 0 0 Z M-141 -12 C-141.969375 -11.52691406 -142.93875 -11.05382812 -143.9375 -10.56640625 C-158.50556793 -3.09180163 -171.88855741 8.37222276 -181 22 C-181.47824219 22.69996094 -181.95648438 23.39992188 -182.44921875 24.12109375 C-197.16877734 47.0310629 -202.61939194 75.95877973 -198.38671875 102.76171875 C-192.123813 130.04812308 -174.97755825 155.05109368 -151.375 170.0625 C-143.85689707 174.70385869 -136.13939455 178.57795347 -128 182 C-126.88367188 182.47308594 -125.76734375 182.94617188 -124.6171875 183.43359375 C-98.51919623 193.63663674 -68.13759547 192.28661338 -42 183 C-40.98164063 182.67644531 -39.96328125 182.35289062 -38.9140625 182.01953125 C-22.53908357 176.41969278 -4.41316167 164.04361334 7 151 C7 150.34 7 149.68 7 149 C7.66 149 8.32 149 9 149 C27.22986382 130.32332579 32.44910889 101.13935251 32.22265625 76.29296875 C31.98966161 66.48521341 30.48800718 57.79553151 26 49 C25.3828125 46.87109375 25.3828125 46.87109375 25 45 C21.61635769 32.32435533 14.7318004 21.65245151 6 12 C5.22785156 11.14535156 4.45570313 10.29070312 3.66015625 9.41015625 C-2.53833456 2.8901878 -9.41381159 -2.23730519 -17 -7 C-17.59522461 -7.38043457 -18.19044922 -7.76086914 -18.80371094 -8.15283203 C-56.15925581 -31.71510398 -102.16926948 -31.37278771 -141 -12 Z " fill="#090909" transform="translate(363,292)"/>
<path d="M0 0 C0.33 0 0.66 0 1 0 C1 1.98 1 3.96 1 6 C1.66 6 2.32 6 3 6 C3.75 8.1875 3.75 8.1875 4 11 C2.1875 13.625 2.1875 13.625 0 16 C-0.66 16.99 -1.32 17.98 -2 19 C-1.34 12.73 -0.68 6.46 0 0 Z " fill="#5157CD" transform="translate(537,715)"/>
<path d="M0 0 C0.99 0.33 1.98 0.66 3 1 C2.34 2.32 1.68 3.64 1 5 C-4.94 5 -10.88 5 -17 5 C-17 4.67 -17 4.34 -17 4 C-16.25234375 3.95101562 -15.5046875 3.90203125 -14.734375 3.8515625 C-13.74953125 3.77679687 -12.7646875 3.70203125 -11.75 3.625 C-10.28820312 3.52058594 -10.28820312 3.52058594 -8.796875 3.4140625 C-6.07662619 3.0113441 -4.35616844 2.36574365 -2 1 C-1.34 0.67 -0.68 0.34 0 0 Z " fill="#575CD9" transform="translate(965,572)"/>
<path d="M0 0 C2.31 0.33 4.62 0.66 7 1 C5.35 2.98 3.7 4.96 2 7 C0 5 0 5 -0.125 2.375 C-0.08375 1.59125 -0.0425 0.8075 0 0 Z " fill="#5860D9" transform="translate(1235,1110)"/>
<path d="M0 0 C2.72869407 0.03287583 5.2966618 0.56397771 8 1 C5.44008376 3.01136276 2.95409701 4.62845496 0 6 C0 5.01 0 4.02 0 3 C-0.66 2.67 -1.32 2.34 -2 2 C-1.34 1.34 -0.68 0.68 0 0 Z " fill="#5861E1" transform="translate(1092,389)"/>
</svg>
